<?xml version="1.0" standalone="no"?><!DOCTYPE svg PUBLIC "-//W3C//DTD SVG 1.1//EN" "http://www.w3.org/Graphics/SVG/1.1/DTD/svg11.dtd"><svg t="1569227238263" class="icon" viewBox="0 0 1024 1024" version="1.1" xmlns="http://www.w3.org/2000/svg" p-id="1034" xmlns:xlink="http://www.w3.org/1999/xlink" width="200" height="200"><defs><style type="text/css"></style></defs><path d="M309.540571 340.553143a40.667429 40.667429 0 0 0-11.410285-29.257143 40.96 40.96 0 0 0-29.257143-11.410286 55.003429 55.003429 0 0 0-34.816 11.702857 36.864 36.864 0 0 0 0 58.514286 55.003429 55.003429 0 0 0 34.816 11.702857 42.130286 42.130286 0 0 0 29.257143-11.117714 40.374857 40.374857 0 0 0 11.410285-29.257143z m338.797715 231.131428a29.257143 29.257143 0 0 0-11.702857-22.820571 44.763429 44.763429 0 0 0-29.257143-9.947429 32.182857 32.182857 0 0 0-22.235429 55.881143 31.012571 31.012571 0 0 0 22.528 10.24 43.300571 43.300571 0 0 0 29.257143-9.947428 29.257143 29.257143 0 0 0 11.702857-23.405715z m-107.666286-231.131428a41.545143 41.545143 0 0 0-11.117714-29.257143 39.497143 39.497143 0 0 0-29.257143-11.410286 55.003429 55.003429 0 0 0-34.816 11.702857 36.864 36.864 0 0 0 0 58.514286 55.003429 55.003429 0 0 0 34.816 11.702857 40.374857 40.374857 0 0 0 29.257143-11.117714 41.252571 41.252571 0 0 0 11.117714-29.257143z m289.645714 231.131428a29.257143 29.257143 0 0 0-11.702857-22.820571 45.641143 45.641143 0 0 0-29.257143-9.947429 35.108571 35.108571 0 0 0-33.060571 32.768 31.890286 31.890286 0 0 0 10.24 23.113143 31.012571 31.012571 0 0 0 22.820571 10.24 44.178286 44.178286 0 0 0 29.257143-9.947428 29.257143 29.257143 0 0 0 11.702857-23.405715z m-121.124571-181.101714a266.532571 266.532571 0 0 0-32.182857-1.755428 292.571429 292.571429 0 0 0-141.604572 35.108571 268.873143 268.873143 0 0 0-102.107428 95.085714 243.712 243.712 0 0 0-37.156572 131.364572 231.716571 231.716571 0 0 0 10.532572 69.339428h-53.833143c-7.314286 0-15.798857-1.462857-25.161143-2.925714l-20.187429-3.218286-24.868571-4.681143-22.820571-4.973714-117.028572 58.514286L175.542857 662.966857Q45.056 570.514286 44.763429 438.857143a246.930286 246.930286 0 0 1 44.470857-141.897143 306.907429 306.907429 0 0 1 120.539428-101.229714 370.980571 370.980571 0 0 1 165.888-37.156572 382.976 382.976 0 0 1 151.552 29.257143 331.776 331.776 0 0 1 119.661715 83.090286 259.510857 259.510857 0 0 1 62.317714 118.784z m270.043428 256a186.660571 186.660571 0 0 1-31.305142 102.107429 342.601143 342.601143 0 0 1-84.553143 87.771428l24.868571 82.797715-90.697143-49.737143a477.184 477.184 0 0 1-99.474285 16.676571A312.758857 312.758857 0 0 1 555.885714 854.308571a256.292571 256.292571 0 0 1-101.814857-87.771428 214.162286 214.162286 0 0 1 0-241.078857A258.633143 258.633143 0 0 1 555.885714 438.857143a316.854857 316.854857 0 0 1 141.897143-32.182857 308.370286 308.370286 0 0 1 138.678857 32.182857 270.921143 270.921143 0 0 1 103.570286 87.771428 204.8 204.8 0 0 1 39.204571 120.246858z m0 0" p-id="1035"></path></svg>